<?xml version="1.0" encoding="UTF-8"?>
<svg width="18px" height="15px" viewBox="0 0 18 15" version="1.1" xmlns="http://www.w3.org/2000/svg" xmlns:xlink="http://www.w3.org/1999/xlink">
    <!-- Generator: Sketch 43.1 (39012) - http://www.bohemiancoding.com/sketch -->
    <title>Twitter_Logo_White_On_Image</title>
    <desc>Created with Sketch.</desc>
    <defs></defs>
    <g id="Page-1" stroke="none" stroke-width="1" fill="none" fill-rule="evenodd">
        <g id="Artboard" fill-rule="nonzero" fill="#A2A8AD">
            <g id="Twitter_Logo_White_On_Image">
                <g id="Logo__x2014__FIXED">
                    <path d="M5.63162912,14.7022103 C12.2907634,14.7022103 15.9345738,9.18000141 15.9345738,4.39926559 C15.9345738,4.24390933 15.9345738,4.08855307 15.9275122,3.93319681 C16.633677,3.42475814 17.2480404,2.78214815 17.7352941,2.05479839 C17.0856225,2.34432597 16.3865193,2.53499047 15.6521079,2.62679189 C16.4006426,2.18190806 16.9726361,1.46868159 17.2480404,0.621283808 C16.5489372,1.03792105 15.7721559,1.33451027 14.9459431,1.49692818 C14.2821482,0.790763364 13.3429489,0.352941176 12.3048867,0.352941176 C10.3064402,0.352941176 8.68226114,1.97712026 8.68226114,3.9755667 C8.68226114,4.25803262 8.71756938,4.5334369 8.77406257,4.80177954 C5.76580044,4.65348492 3.09649742,3.20584704 1.30990043,1.01673611 C0.99918791,1.55342137 0.822646706,2.17484641 0.822646706,2.83864134 C0.822646706,4.09561472 1.46525669,5.20429348 2.43270249,5.85396512 C1.83952404,5.83278017 1.28165384,5.67036226 0.794400113,5.40201963 L0.794400113,5.45145117 C0.794400113,7.20273992 2.04431184,8.67156274 3.69673752,9.00346021 C3.39308665,9.08819999 3.07531248,9.13056988 2.74341501,9.13056988 C2.51038062,9.13056988 2.28440788,9.10938493 2.06549679,9.06701504 C2.52450392,10.5075913 3.86621708,11.5527152 5.44802627,11.5809618 C4.20517619,12.5554692 2.64455194,13.1345244 0.949756373,13.1345244 C0.660228797,13.1345244 0.370701222,13.1204011 0.0882352941,13.0850929 C1.68416778,14.1019702 3.5908128,14.7022103 5.63162912,14.7022103" id="Shape"></path>
                </g>
            </g>
        </g>
    </g>
</svg>